<?xml version="1.0" encoding="utf-8"?>
<!-- Generator: Adobe Illustrator 15.0.0, SVG Export Plug-In . SVG Version: 6.00 Build 0)  -->
<!DOCTYPE svg PUBLIC "-//W3C//DTD SVG 1.1//EN" "http://www.w3.org/Graphics/SVG/1.1/DTD/svg11.dtd">
<svg version="1.1"
	 id="svg3925" sodipodi:docname="New document 5" inkscape:version="0.48.5 r10040" xmlns:sodipodi="http://sodipodi.sourceforge.net/DTD/sodipodi-0.dtd" xmlns:inkscape="http://www.inkscape.org/namespaces/inkscape" xmlns:svg="http://www.w3.org/2000/svg" xmlns:rdf="http://www.w3.org/1999/02/22-rdf-syntax-ns#" xmlns:cc="http://creativecommons.org/ns#" xmlns:dc="http://purl.org/dc/elements/1.1/"
	 xmlns="http://www.w3.org/2000/svg" xmlns:xlink="http://www.w3.org/1999/xlink" x="0px" y="0px" width="247.438px"
	 height="247.438px" viewBox="0 0 247.438 247.438" enable-background="new 0 0 247.438 247.438" xml:space="preserve">
<sodipodi:namedview  inkscape:pageopacity="0.0" inkscape:pageshadow="2" inkscape:zoom="0.35" inkscape:cx="61.575893" inkscape:cy="-44.852673" inkscape:document-units="px" inkscape:current-layer="layer1" showgrid="false" fit-margin-top="0" fit-margin-left="0" fit-margin-right="0" fit-margin-bottom="0" inkscape:window-width="526" inkscape:window-height="432" inkscape:window-x="303" inkscape:window-y="146" inkscape:window-maximized="0" bordercolor="#666666" borderopacity="1.0" pagecolor="#ffffff" id="base">
	</sodipodi:namedview>
<g id="layer1" transform="translate(-313.42411,-240.072)" inkscape:groupmode="layer" inkscape:label="Layer 1">
	
		<g id="g3863" transform="translate(-30.751303,191.92872)" inkscape:export-filename="/home/frank/Desktop/ffmuc-logo.png" inkscape:export-xdpi="90.93" inkscape:export-ydpi="90.93">
		
			<path id="path3216" inkscape:connector-curvature="0" sodipodi:nodetypes="ccsccsccsccsccsccsccscccccsccsccsccccccsccsccscccccsccsccsccsccsccsccscccc" fill="#DE2C68" d="
			M467.036,80.581l-0.297,20.595c-0.596,0.126-1.023,0.312-1.023,0.562c0,0.25,0.425,0.468,1.023,0.594l-0.231,19.583
			c-1.138,0.174-1.949,0.521-1.949,0.958c0,0.21,0.179,0.428,0.496,0.594v20.422c-0.752,0.241-1.222,0.554-1.222,0.925
			c0,0.34,0.41,0.657,1.057,0.892v3.996c-1.469,0.319-2.444,0.835-2.444,1.453c0,0.448,0.516,0.843,1.354,1.156v12.49
			c-4.598,0.549-7.925,1.977-7.925,3.666c0,1.565,2.864,2.94,6.935,3.567v5.58c-7.482,0.719-12.978,2.975-12.978,5.647
			c0,0.064,0.027,0.134,0.033,0.198v15.487c-0.006,0.063-0.033,0.134-0.033,0.198c0,0.068,0.026,0.131,0.033,0.198v0.033
			c0.25,2.083,3.834,3.874,9.048,4.854l2.081,1.617v1.586c-6.544,0.883-11.162,2.962-11.162,5.416c0,1.408,1.53,2.718,4.062,3.73
			v1.553c-2.532,1.013-4.062,2.289-4.062,3.698s1.53,2.719,4.062,3.731v1.553c-2.532,1.013-4.062,2.289-4.062,3.698
			c0,2.178,3.656,4.101,9.048,5.118l3.632,2.807l-1.756,32.865h14.277l-1.756-32.865l3.6-2.807c5.422-1.016,9.081-2.934,9.081-5.118
			c0-1.409-1.53-2.686-4.062-3.698v-1.553c2.531-1.013,4.062-2.322,4.062-3.731s-1.53-2.686-4.062-3.698v-1.553
			c2.531-1.013,4.062-2.322,4.062-3.73c0-2.451-4.6-4.53-11.129-5.416v-1.586l2.081-1.617c5.209-0.98,8.764-2.772,9.015-4.855
			c0.001-0.01-0.001-0.021,0-0.032c0.009-0.067,0.033-0.13,0.033-0.198c0-0.064-0.026-0.135-0.033-0.198v-15.487
			c0.007-0.064,0.033-0.134,0.033-0.198c0-2.676-5.481-4.932-12.978-5.647v-5.58c4.084-0.625,6.934-1.998,6.934-3.567
			c0-1.692-3.314-3.119-7.925-3.666v-12.49c0.838-0.313,1.354-0.708,1.354-1.156c0-0.614-0.96-1.133-2.411-1.453v-3.996
			c0.63-0.233,1.023-0.556,1.023-0.892c0-0.371-0.47-0.684-1.222-0.925v-20.422c0.316-0.167,0.495-0.384,0.495-0.594
			c0-0.438-0.808-0.784-1.948-0.958l-0.23-19.583c0.605-0.125,1.023-0.343,1.023-0.594c0-0.251-0.42-0.436-1.023-0.562
			l-0.298-20.595H467.036L467.036,80.581z"/>
		<path id="path3279" inkscape:connector-curvature="0" fill="#DE2C68" d="M467.879,77.945c51.859,0,93.917,42.058,93.917,93.917
			s-42.059,93.887-93.917,93.887s-93.887-42.028-93.887-93.887S416.02,77.945,467.879,77.945z M467.879,65.143
			c-58.932,0-106.688,47.787-106.688,106.719S408.947,278.55,467.879,278.55s106.719-47.756,106.719-106.688
			S526.81,65.143,467.879,65.143z"/>
		<path id="path3283" inkscape:connector-curvature="0" fill="#DE2C68" d="M467.895,54.382c64.875,0,117.48,52.605,117.48,117.479
			c0,64.875-52.605,117.45-117.48,117.45s-117.449-52.575-117.449-117.45C350.445,106.988,403.02,54.382,467.895,54.382
			L467.895,54.382z M467.894,48.143c-68.332,0-123.719,55.387-123.719,123.719c0,68.332,55.387,123.719,123.719,123.719
			c68.332,0,123.719-55.387,123.719-123.719C591.613,103.531,536.226,48.143,467.894,48.143z"/>
		<polygon id="polygon3322" fill="#FFCC33" points="506.548,150.584 488.757,133.72 506.548,116.856 521.375,116.856 
			509.513,128.098 533.236,128.098 533.236,139.342 509.513,139.342 521.375,150.584 		"/>
		<polygon id="polygon3324" fill="#FFCC33" points="424.566,128.734 411.092,114.79 429.057,114.79 449.267,135.706 
			429.057,156.622 411.092,156.622 424.566,142.678 395.374,142.678 395.374,128.734 		"/>
	</g>
</g>
</svg>
