<?xml version="1.0" encoding="UTF-8" standalone="no"?>
<svg
   width="512"
   height="512"
   viewBox="0 0 512 512"
   version="1.1"
   id="svg19"
   sodipodi:docname="white-watermark.svg"
   inkscape:export-filename="C:\Users\wiels\Nextcloud\Desktop\temp\video-watermark.png"
   inkscape:export-xdpi="96"
   inkscape:export-ydpi="96"
   inkscape:version="1.1.2 (b8e25be833, 2022-02-05)"
   xmlns:inkscape="http://www.inkscape.org/namespaces/inkscape"
   xmlns:sodipodi="http://sodipodi.sourceforge.net/DTD/sodipodi-0.dtd"
   xmlns:xlink="http://www.w3.org/1999/xlink"
   xmlns="http://www.w3.org/2000/svg"
   xmlns:svg="http://www.w3.org/2000/svg">
  <sodipodi:namedview
     id="namedview21"
     pagecolor="#ffffff"
     bordercolor="#666666"
     borderopacity="1.0"
     inkscape:pageshadow="2"
     inkscape:pageopacity="0.0"
     inkscape:pagecheckerboard="0"
     showgrid="false"
     width="70px"
     inkscape:zoom="0.66526963"
     inkscape:cx="710.23834"
     inkscape:cy="187.89374"
     inkscape:window-width="1920"
     inkscape:window-height="1009"
     inkscape:window-x="-8"
     inkscape:window-y="-8"
     inkscape:window-maximized="1"
     inkscape:current-layer="layer1" />
  <defs
     id="defs2">
    <clipPath
       clipPathUnits="userSpaceOnUse"
       id="clipPath654">
      <use
         x="0"
         y="0"
         xlink:href="#g650"
         id="use656"
         width="100%"
         height="100%" />
    </clipPath>
  </defs>
  <g
     id="Templates"
     stroke="none"
     stroke-width="1"
     fill="none"
     fill-rule="evenodd"
     transform="translate(-235.46225,-0.98285985)">
    <g
       id="Startseite"
       transform="translate(-1005,-100)">
      <g
         id="Header">
        <g
           id="logo-johanneswerk"
           transform="translate(1005,100)">
          <g
             id="logo_johanneswerk_RGB">
            <g
               id="g652"
               clip-path="url(#clipPath654)">
              <g
                 inkscape:label="Clip"
                 id="g650" />
            </g>
            <path
               d="m 213.98927,53.811577 h 2.96179 v -9.828599 l 9.62582,10.565744 2.46816,-1.96572 -8.14492,-9.091454 7.8981,-7.617164 -1.97453,-1.965719 -9.87263,10.074313 0.24682,-18.674337 h -2.96179 z m -12.83442,0 h 2.96179 l 0.24682,-12.531463 c 1.72771,-2.94858 3.70224,-4.177155 4.93631,-4.177155 0.49364,0 0.98727,0 1.23408,0.245715 l 0.98727,-2.948579 c -0.49363,-0.245715 -0.98727,-0.245715 -1.72771,-0.245715 -2.71498,0 -4.6895,2.702864 -5.18314,4.177154 v 0 -3.685724 h -3.2086 z M 184.6182,41.771544 c 0.49363,-2.702865 2.22134,-5.160015 5.18313,-5.160015 3.2086,0 4.19587,2.45715 4.19587,5.160015 z m 12.5876,1.965719 v -0.49143 c 0,-5.160014 -2.22134,-9.091453 -7.40447,-9.091453 -5.18313,0 -8.63855,4.914299 -8.63855,10.074313 0,6.142874 2.96179,10.074314 8.39173,10.074314 2.71498,0 5.42995,-1.47429 7.15766,-3.44001 l -1.48089,-1.720005 c -1.72772,1.47429 -3.20861,2.702865 -5.42995,2.702865 -3.94905,0 -5.42995,-3.44001 -5.42995,-7.617164 v -0.737145 h 12.83442 z m -39.73734,10.074314 h 2.96179 l 5.18313,-14.988613 v 0 l 4.19587,14.988613 h 2.96179 l 6.66403,-18.674337 -2.96179,-0.98286 -5.18313,15.725757 v 0 L 167.09428,34.64581 h -3.20861 l -5.18313,15.234327 v 0 l -4.19587,-15.725757 -3.2086,0.98286 z m -20.23889,-1.47429 c 1.72771,0.98286 3.70224,1.96572 5.92358,1.96572 3.2086,0 6.41721,-2.211435 6.41721,-5.651445 0,-6.388589 -8.88537,-4.668584 -8.88537,-8.845738 0,-2.211435 1.72771,-3.194295 3.94905,-3.194295 1.23408,0 2.46816,0.737145 3.70224,1.228575 l 1.48089,-1.96572 c -1.48089,-0.982859 -3.45542,-1.720004 -5.42994,-1.720004 -3.45542,0 -6.41721,2.211434 -6.41721,5.651444 0,6.388589 8.88536,4.177154 8.88536,9.091454 0,2.211434 -1.97452,2.948579 -3.70223,2.948579 -1.72771,0 -3.20861,-0.98286 -4.19587,-1.720005 z M 121.68018,41.771544 c 0.49363,-2.702865 2.22134,-5.160015 5.18313,-5.160015 3.2086,0 4.19586,2.45715 4.19586,5.160015 z m 12.34078,1.965719 v -0.49143 c 0,-5.160014 -2.22134,-9.091453 -7.40447,-9.091453 -5.18313,0 -8.63855,4.914299 -8.63855,10.074313 0,6.142874 2.96179,10.074314 8.39174,10.074314 2.71497,0 5.18313,-1.47429 7.15765,-3.44001 l -1.48089,-1.720005 c -1.72771,1.47429 -3.20861,2.702865 -5.42995,2.702865 -3.94905,0 -5.42995,-3.44001 -5.42995,-7.617164 v -0.737145 h 12.83442 z M 98.232677,53.811577 h 2.961793 l 0.24681,-13.268608 c 1.97453,-2.45715 3.70224,-3.44001 5.67676,-3.44001 1.97453,0 3.45543,0.98286 3.45543,2.94858 v 5.160014 8.600024 h 2.96179 v -9.337169 -4.422869 c 0,-3.44001 -1.4809,-5.651444 -5.92358,-5.651444 -2.22135,0 -4.93632,1.228574 -6.41721,3.685724 v 0 -2.948579 h -2.961793 z m -21.226156,0 h 2.961789 l 0.246816,-13.268608 c 1.974526,-2.45715 3.702236,-3.44001 5.676763,-3.44001 2.221341,0 3.45542,0.98286 3.45542,2.94858 v 5.160014 8.600024 h 2.96179 v -9.337169 -4.422869 c 0,-3.44001 -1.480895,-5.651444 -5.923579,-5.651444 -2.221342,0 -4.936315,1.228574 -6.41721,3.685724 v 0 -2.948579 h -2.961789 z m -9.625815,-4.668585 c -1.234079,1.47429 -2.714974,2.702865 -4.442684,2.702865 -2.221342,0 -3.455421,-0.98286 -3.455421,-3.194295 0,-3.194294 2.714974,-4.177154 8.14492,-4.914299 z m 5.923578,2.211435 c -0.493631,0.245715 -0.987263,0.737145 -1.72771,0.737145 -1.234079,0 -1.480895,-1.228575 -1.480895,-2.702865 0,-3.440009 0.246816,-6.634304 0.246816,-10.320028 0,-2.94858 -1.480895,-4.914299 -4.6895,-4.914299 -2.714973,0 -3.949052,0.737145 -7.898104,3.194294 l 1.480894,1.96572 c 2.714974,-2.211435 3.949053,-2.702865 5.429947,-2.702865 1.974526,0 2.961789,1.228575 2.961789,2.94858 v 2.457149 c -4.195868,0.245715 -11.106709,1.47429 -11.106709,6.88002 0,3.194294 2.221342,5.405729 5.429947,5.405729 2.468157,0 4.195868,-1.47429 5.676762,-3.194295 0.246816,1.47429 0.987264,3.194295 2.714974,3.194295 1.234079,0 2.468158,-0.49143 3.455421,-1.47429 z m -36.77555,2.45715 h 2.96179 l 0.246815,-13.268608 c 1.974526,-2.45715 3.702237,-3.44001 5.676763,-3.44001 2.221342,0 3.455421,0.98286 3.455421,2.94858 v 5.160014 8.600024 h 2.961789 v -9.337169 -4.422869 c 0,-3.44001 -1.480895,-5.651444 -5.923578,-5.651444 -2.221342,0 -4.936316,1.228574 -6.41721,3.440009 v 0 L 39.737339,25.308641 H 36.528734 Z M 14.068499,44.228693 c 0,6.142874 3.208605,10.074314 8.885368,10.074314 5.923578,0 9.378999,-5.160015 9.378999,-10.074314 0,-6.142874 -3.208605,-10.074313 -8.885368,-10.074313 -6.170394,0 -9.378999,5.160014 -9.378999,10.074313 z m 3.208605,0 c 0,-5.160014 3.208605,-7.617164 5.923579,-7.617164 3.208605,0 5.676762,2.45715 5.676762,7.617164 0,5.160014 -3.208605,7.617164 -5.923578,7.617164 -3.208605,0 -5.676763,-2.45715 -5.676763,-7.617164 z M 0,54.303007 c 6.6640258,0 9.6258151,-2.94858 9.6258151,-8.354309 L 9.8726309,27.520076 H 6.4172101 L 6.1703943,45.457268 c 0,3.44001 -0.9872631,6.142874 -6.1703943,6.142874 z"
               id="path10"
               fill="#333333"
               fill-rule="nonzero"
               style="display:none" />
            <path
               d="m 220.40648,17.691477 c 1.23408,0.737145 2.46816,1.228575 3.94906,1.228575 1.97452,0 4.19586,-1.47429 4.19586,-3.685724 0,-4.177155 -5.67676,-3.194295 -5.67676,-5.6514445 0,-1.4742897 0.98726,-1.9657197 2.46816,-1.9657197 0.98726,0 1.72771,0.49143 2.46816,0.7371449 l 0.98726,-1.2285748 C 227.81096,6.388589 226.57688,6.142874 225.09598,6.142874 c -2.22134,0 -4.19586,1.4742898 -4.19586,3.6857245 0,4.1771545 5.67676,2.7028645 5.67676,5.8971595 0,1.474289 -1.23408,1.965719 -2.46816,1.965719 -0.98726,0 -1.97453,-0.49143 -2.71497,-0.98286 z m -10.11944,-6.880019 c 0.49363,-1.7200044 1.48089,-3.4400091 3.45542,-3.4400091 1.97452,0 2.71497,1.7200047 2.71497,3.4400091 z m 8.14492,1.228575 v -0.245715 c 0,-3.1942943 -1.4809,-5.8971589 -4.6895,-5.8971589 -3.20861,0 -5.67676,3.1942945 -5.67676,6.3885889 0,3.93144 1.97452,6.388589 5.42994,6.388589 1.72771,0 3.45542,-0.98286 4.6895,-2.211435 l -0.98726,-0.982859 c -0.98726,0.982859 -2.22134,1.720004 -3.45542,1.720004 -2.46816,0 -3.45542,-2.211434 -3.45542,-4.914299 v -0.245715 z m -23.20068,6.388589 h 1.97452 V 9.8285985 c 1.23408,-1.4742898 2.46816,-2.2114347 3.70224,-2.2114347 1.48089,0 2.22134,0.7371449 2.22134,1.9657197 v 3.4400095 5.405729 h 1.97453 V 12.285748 9.5828835 c 0,-2.2114346 -0.98727,-3.6857244 -3.70224,-3.6857244 -1.4809,0 -3.20861,0.7371449 -4.19587,2.2114347 v 0 L 197.45262,0 h -1.97453 z M 193.00993,7.8628788 c -0.98726,-1.2285748 -2.46815,-1.9657197 -3.94905,-1.9657197 -3.45542,0 -5.67676,3.1942945 -5.67676,6.3885889 0,4.177154 2.46816,6.388589 5.42994,6.388589 1.72772,0 2.96179,-0.737145 4.19587,-1.96572 l -0.98726,-1.228574 c -0.74045,0.982859 -1.72771,1.720004 -2.96179,1.720004 -1.97453,0 -3.70224,-1.720004 -3.70224,-4.422869 0,-3.4400094 1.97453,-5.1600142 3.70224,-5.1600142 0.98726,0 1.97453,0.49143 2.71497,1.4742898 z m -19.49844,9.8285982 c 1.23408,0.737145 2.46815,1.228575 3.94905,1.228575 1.97453,0 4.19587,-1.47429 4.19587,-3.685724 0,-4.177155 -5.67677,-3.194295 -5.67677,-5.6514445 0,-1.4742897 0.98727,-1.9657197 2.46816,-1.9657197 0.98727,0 1.72771,0.49143 2.46816,0.7371449 l 0.98726,-1.2285748 C 180.91596,6.388589 179.68188,6.142874 178.20099,6.142874 c -2.22135,0 -4.19587,1.4742898 -4.19587,3.6857245 0,4.1771545 5.67676,2.7028645 5.67676,5.8971595 0,1.474289 -1.23408,1.965719 -2.46816,1.965719 -0.98726,0 -1.97452,-0.49143 -2.71497,-0.98286 z m -4.6895,-14.0057526 h 2.22134 V 1.4742898 h -2.22134 z m 0,14.7428976 h 1.97452 V 6.142874 h -1.97452 z m -5.67677,0 h 1.97453 L 165.36657,0 h -1.97453 z m -10.85989,-7.617164 c 0.49363,-1.7200044 1.4809,-3.4400091 3.45542,-3.4400091 1.97453,0 2.71498,1.7200047 2.71498,3.4400091 z m 8.14492,1.228575 v -0.245715 c 0,-3.1942943 -1.48089,-5.8971589 -4.6895,-5.8971589 -3.2086,0 -5.67676,3.1942945 -5.67676,6.3885889 0,3.93144 1.97452,6.388589 5.42995,6.388589 1.72771,0 3.45542,-0.98286 4.6895,-2.211435 l -0.98727,-0.982859 c -0.98726,0.982859 -2.22134,1.720004 -3.45542,1.720004 -2.46816,0 -3.45542,-2.211434 -3.45542,-4.914299 v -0.245715 z m -15.79621,-1.96572 c 0,1.47429 -0.74045,2.702865 -2.46816,2.702865 -1.48089,0 -2.22134,-1.228575 -2.22134,-2.702865 0,-1.7200043 0.98727,-2.9485791 2.46816,-2.9485791 1.72771,0 2.22134,1.2285748 2.22134,2.9485791 z m -6.41721,10.811459 c 0,-1.228575 0.49363,-1.96572 2.71498,-3.194295 3.94905,0.737145 4.93631,1.228575 4.93631,2.45715 0,1.96572 -2.46816,2.948579 -4.19587,2.948579 -1.23408,0 -3.45542,-0.49143 -3.45542,-2.211434 z M 148.82991,6.388589 h -4.19587 c -0.74045,-0.4914299 -1.48089,-0.4914299 -2.22134,-0.4914299 -2.22134,0 -4.44268,1.7200047 -4.44268,3.9314394 0,1.4742895 0.49363,2.4571495 1.48089,3.4400095 -2.22134,1.228575 -2.96179,1.96572 -2.96179,2.702865 0,0.737144 0.74045,1.474289 2.96179,1.474289 v 0 c -1.23408,0.737145 -3.2086,1.720005 -3.2086,3.44001 0,2.948579 3.45542,3.440009 5.67676,3.440009 2.46816,0 6.17039,-1.474289 6.17039,-4.422869 0,-2.211435 -1.97452,-2.94858 -5.18313,-3.44001 -3.45542,-0.491429 -3.94905,-0.737144 -3.94905,-1.228574 0,-0.245715 0.24681,-0.49143 1.48089,-1.47429 0.74045,0.245715 1.4809,0.49143 2.22135,0.49143 2.46815,0 4.19586,-1.720005 4.19586,-4.177155 0,-0.7371444 -0.24681,-1.4742893 -0.98726,-2.4571492 h 2.96179 z m -24.92839,12.040033 h 1.97452 V 9.8285985 c 1.23408,-1.4742898 2.46816,-2.2114347 3.70224,-2.2114347 1.23408,0 2.22134,0.7371449 2.22134,1.9657197 v 3.4400095 5.405729 h 1.97453 V 12.285748 9.5828835 c 0,-2.2114346 -0.98727,-3.6857244 -3.70224,-3.6857244 -1.48089,0 -3.2086,0.7371449 -4.19587,2.2114347 v 0 -1.9657198 h -1.97452 z m -6.1704,-2.948579 c -0.74044,0.982859 -1.72771,1.720004 -2.96179,1.720004 -1.48089,0 -2.22134,-0.737145 -2.22134,-2.211434 0,-2.211435 1.72771,-2.702865 5.18313,-3.194295 z m 3.94906,1.474289 c -0.49364,0.245715 -0.74045,0.49143 -0.98727,0.49143 -0.74044,0 -0.98726,-0.98286 -0.98726,-1.720004 0,-2.211435 0.24682,-4.42287 0.24682,-6.6343044 0,-1.9657197 -0.98727,-3.1942945 -3.20861,-3.1942945 -1.72771,0 -2.46816,0.4914299 -4.93631,1.9657197 l 0.74044,1.2285748 c 1.72771,-1.2285748 2.71497,-1.7200047 3.45542,-1.7200047 1.23408,0 1.97453,0.7371449 1.97453,1.9657197 v 1.4742894 c -2.71498,0 -7.15766,0.98286 -7.15766,4.42287 0,1.965719 1.4809,3.440009 3.45542,3.440009 1.4809,0 2.71498,-0.98286 3.70224,-1.96572 0,0.98286 0.74045,1.96572 1.72771,1.96572 0.74045,0 1.72771,-0.245715 2.22134,-0.98286 z M 107.61168,5.8971591 103.66262,16.217188 v 0 L 100.2072,5.8971591 98.232677,6.388589 102.67536,18.428622 h 1.97453 L 109.5862,6.388589 Z M 87.372783,18.428622 h 9.132184 v -1.720005 h -6.910842 v -5.897159 h 6.41721 V 9.0914536 h -6.41721 V 3.1942945 h 6.664026 V 1.4742898 h -8.885368 z"
               id="path12"
               fill="#333333"
               fill-rule="nonzero"
               style="display:none" />
          </g>
        </g>
      </g>
    </g>
  </g>
  <g
     inkscape:groupmode="layer"
     id="layer1"
     inkscape:label="Logo"
     transform="translate(-235.46225,-0.98285985)">
    <path
       d="m 514.7578,131.4278 h -85.42084 v 187.79642 c -1.18651,100.39427 -22.54176,137.00864 -96.09837,137.00864 v 55.51217 c 141.18161,0 180.33326,-70.86656 181.51921,-200.78862 V 131.4278"
       id="Shape"
       fill="#b51d28"
       fill-rule="nonzero"
       style="stroke-width:4.80687" />
    <rect
       id="Rectangle-path"
       fill="#b51d28"
       fill-rule="nonzero"
       x="557.46887"
       y="131.42783"
       width="85.42086"
       height="85.039871"
       style="stroke-width:4.80687" />
    <rect
       id="rect6"
       fill="#7f7f7f"
       fill-rule="nonzero"
       x="557.46887"
       y="5.049108"
       width="85.42086"
       height="85.039871"
       style="stroke-width:4.80687" />
    <rect
       id="rect8"
       fill="#7f7f7f"
       fill-rule="nonzero"
       x="430.52304"
       y="5.049108"
       width="85.42086"
       height="85.039871"
       style="stroke-width:4.80687" />
    <path
       style="fill:#ffffff;stroke:#ffffff;stroke-width:1.49431"
       d="m 332.411,483.66635 v -28.39192 h 9.02887 c 13.05067,0 30.59652,-3.90505 41.77771,-9.29819 17.24468,-8.31776 29.89762,-24.9197 36.62247,-48.05238 6.95868,-23.93702 7.1148,-26.95449 7.75994,-149.98509 l 0.61315,-116.92986 h 43.25191 43.25191 v 104.98452 c 0,108.58603 -0.69885,124.6234 -6.69045,153.5365 -13.1464,63.43924 -46.71952,100.24429 -105.05004,115.16274 -15.32157,3.9186 -42.43685,7.36559 -57.94036,7.36559 H 332.411 Z"
       id="path3867" />
    <g
       id="path3906"
       transform="matrix(0.99411982,0,0,0.99411982,236.02793,3.9924696)">
      <path
         style="color:#000000;fill:#ffffff;stroke-width:1.50315;-inkscape-stroke:none"
         d="m 322.42566,171.35909 v -43.59135 h 43.59135 43.59135 v 43.59135 43.59135 h -43.59135 -43.59135 z"
         id="path4428" />
      <path
         style="color:#000000;fill:#ffffff;-inkscape-stroke:none"
         d="m 321.67383,127.01563 v 44.34374 44.3418 h 44.34375 44.34179 v -44.3418 -44.34374 h -44.34179 z m 1.5039,1.5039 h 42.83985 42.83984 v 42.83984 42.83985 h -42.83984 -42.83985 v -42.83985 z"
         id="path4430" />
    </g>
    <rect
       style="fill:#ffffff;stroke:#ffffff;stroke-width:0.99412"
       id="rect4860"
       width="85.420883"
       height="85.039871"
       x="430.52304"
       y="5.049108" />
    <rect
       style="fill:#ffffff;stroke:#ffffff;stroke-width:0.99412"
       id="rect4862"
       width="85.420883"
       height="85.039871"
       x="557.46887"
       y="5.049108" />
  </g>
</svg>
