<?xml version="1.0" encoding="UTF-8" standalone="no"?>
<svg
   xmlns:dc="http://purl.org/dc/elements/1.1/"
   xmlns:cc="http://creativecommons.org/ns#"
   xmlns:rdf="http://www.w3.org/1999/02/22-rdf-syntax-ns#"
   xmlns:svg="http://www.w3.org/2000/svg"
   xmlns="http://www.w3.org/2000/svg"
   id="svg961"
   version="1.1"
   viewBox="0 0 150.44291 150.44291"
   height="150.44292mm"
   width="150.44292mm">
  <defs
     id="defs955" />
  <metadata
     id="metadata958">
    <rdf:RDF>
      <cc:Work
         rdf:about="">
        <dc:format>image/svg+xml</dc:format>
        <dc:type
           rdf:resource="http://purl.org/dc/dcmitype/StillImage" />
        <dc:title></dc:title>
      </cc:Work>
    </rdf:RDF>
  </metadata>
  <g
     transform="translate(-29.729538,-63.481972)"
     id="layer1">
    <circle
       r="74.221458"
       cy="138.70343"
       cx="104.951"
       id="path1582"
       style="fill:#f9f9f9;stroke-width:1.86501;stroke-linecap:round;stroke-linejoin:round" />
    <g
       transform="matrix(3.9512249,0,0,3.9512249,-446.30294,-584.68534)"
       id="g1580">
      <path
         id="path14"
         style="fill:#799a45;fill-opacity:1;fill-rule:nonzero;stroke:none;stroke-width:0.0352777"
         d="m 137.04525,195.5796 -12.7,-10.2683 v -3.15888 l 12.7,9.81562 v 3.61156" />
      <path
         id="path16"
         style="fill:#799a45;fill-opacity:1;fill-rule:nonzero;stroke:none;stroke-width:0.0352777"
         d="m 125.75636,184.868 9.87778,8.6874 v -1.13013 l -9.87778,-8.30626 z m 11.99444,12.73443 -13.75833,-11.84713 v -5.56919 l 13.75833,11.32568 v 6.09064" />
      <path
         id="path18"
         style="fill:#546a34;fill-opacity:1;fill-rule:nonzero;stroke:none;stroke-width:0.0352777"
         d="m 137.04525,170.56201 -12.7,10.0893 v 3.10529 l 12.7,-9.64572 v -3.54887" />
      <path
         id="path20"
         style="fill:#546a34;fill-opacity:1;fill-rule:nonzero;stroke:none;stroke-width:0.0352777"
         d="m 125.75636,181.10499 v 0.70044 l 9.87778,-8.16116 v -1.07665 z m -1.76389,4.60096 v -5.5087 l 13.75833,-11.64043 v 6.01955 l -13.75833,11.12958" />
      <path
         id="path22"
         style="fill:#546a34;fill-opacity:1;fill-rule:nonzero;stroke:none;stroke-width:0.0352777"
         d="m 142.68969,195.5796 11.64167,-10.2683 v -3.15888 l -11.64167,9.81562 v 3.61156" />
      <path
         id="path24"
         style="fill:#546a34;fill-opacity:1;fill-rule:nonzero;stroke:none;stroke-width:0.0352777"
         d="m 153.97858,184.11901 -10.58333,8.30626 v 1.13013 l 10.58333,-8.6874 z m -11.99444,7.39278 13.05278,-11.32568 v 5.56919 l -13.05278,11.84713 v -6.09064" />
      <path
         id="path26"
         style="fill:#799a45;fill-opacity:1;fill-rule:nonzero;stroke:none;stroke-width:0.0352777"
         d="m 142.68969,170.56201 11.64167,10.0893 v 3.10529 l -11.64167,-9.64572 v -3.54887" />
      <path
         id="path28"
         style="fill:#799a45;fill-opacity:1;fill-rule:nonzero;stroke:none;stroke-width:0.0352777"
         d="m 143.39525,172.56762 v 1.07665 l 10.58333,8.16116 v -0.70044 z m -1.41111,2.00875 v -6.01955 l 13.05278,11.64043 v 5.5087 l -13.05278,-11.12958" />
    </g>
  </g>
</svg>